<?xml version="1.0" standalone="no"?>
<!DOCTYPE svg PUBLIC "-//W3C//DTD SVG 20010904//EN"
 "http://www.w3.org/TR/2001/REC-SVG-20010904/DTD/svg10.dtd">
<svg version="1.0" xmlns="http://www.w3.org/2000/svg"
 width="1200.000000pt" height="1200.000000pt" viewBox="0 0 1200.000000 1200.000000"
 preserveAspectRatio="xMidYMid meet">
<metadata>
Created by potrace 1.16, written by Peter Selinger 2001-2019
</metadata>
<g transform="translate(0.000000,1200.000000) scale(0.100000,-0.100000)"
fill="#000000" stroke="none">
<path d="M0 6000 l0 -6000 6000 0 6000 0 0 6000 0 6000 -6000 0 -6000 0 0
-6000z m4445 1722 c584 -8 814 -6 1005 8 171 12 205 5 220 -48 6 -23 10 -199
10 -454 0 -403 -1 -419 -20 -438 -18 -18 -34 -20 -217 -21 -293 -2 -314 -1
-328 11 -13 11 -39 135 -50 245 -9 80 -13 93 -35 105 -24 13 -148 -4 -166 -22
-9 -10 -13 -160 -17 -656 l-5 -642 25 -6 c14 -4 74 -4 133 -1 131 8 135 5 133
-92 -5 -253 -13 -435 -20 -442 -7 -7 -291 -12 -1135 -23 -69 -1 -111 3 -119
11 -7 7 -12 76 -14 207 -2 107 -7 200 -10 206 -10 16 14 107 32 121 8 8 63 15
136 18 l122 6 6 155 c13 306 22 947 14 1043 -6 88 -9 99 -31 113 -20 14 -34
14 -91 5 -112 -19 -103 -7 -103 -134 -1 -134 -11 -192 -38 -219 -23 -24 -39
-24 -341 -15 -157 5 -198 10 -210 22 -13 13 -17 59 -22 263 -4 136 -10 293
-14 350 -5 68 -4 133 4 190 16 111 18 119 39 128 21 9 465 23 542 17 30 -3
285 -8 565 -11z m3707 -179 l288 -157 0 -323 0 -323 -29 -18 c-16 -9 -141 -78
-280 -152 l-251 -135 0 -306 0 -306 -563 -307 c-310 -168 -569 -306 -577 -306
-8 0 -141 69 -295 153 l-280 152 0 328 0 329 270 147 270 148 5 308 c3 192 9
310 15 312 6 2 260 141 565 308 305 167 559 305 565 305 5 0 139 -71 297 -157z"/>
<path d="M8135 7182 l-250 -137 -3 -273 -2 -272 87 47 c49 27 164 89 256 138
l167 90 0 273 c0 149 -1 272 -2 271 -2 0 -115 -62 -253 -137z"/>
<path d="M7575 6876 l-240 -132 -3 -273 -2 -273 52 29 c29 17 142 78 251 137
l197 108 0 269 c0 148 -3 269 -7 268 -5 -1 -116 -60 -248 -133z"/>
<path d="M7573 6267 l-243 -132 0 -273 0 -274 53 29 c28 17 141 78 250 137
l197 108 0 269 c0 148 -3 269 -7 268 -5 0 -117 -59 -250 -132z"/>
<path d="M7018 5962 l-248 -134 0 -269 c0 -148 2 -269 4 -269 9 0 471 253 484
265 9 8 12 72 10 276 l-3 266 -247 -135z"/>
</g>
</svg>
